<?xml version="1.0" encoding="iso-8859-1"?>
<!-- Generator: Adobe Illustrator 18.1.1, SVG Export Plug-In . SVG Version: 6.00 Build 0)  -->
<svg version="1.1" id="Capa_1" xmlns="http://www.w3.org/2000/svg" xmlns:xlink="http://www.w3.org/1999/xlink" x="0px" y="0px"
	 viewBox="0 0 31 31" style="enable-background:new 0 0 31 31;" xml:space="preserve">
<g>
	<path style="fill:#010002;" d="M15.5,0C6.954,0,0,6.954,0,15.5S6.954,31,15.5,31S31,24.046,31,15.5S24.046,0,15.5,0z M29.062,15.5
		c0,6.021-3.946,11.13-9.385,12.896l-1.271-1.271h-5.812l-1.272,1.271C5.883,26.63,1.938,21.521,1.938,15.5
		c0-0.787,0.081-1.553,0.211-2.303l2.695-0.604l1.938-3.875L5.865,5.969c2.46-2.487,5.87-4.032,9.635-4.032s7.176,1.545,9.635,4.032
		l-0.916,2.749l1.938,3.875l2.695,0.604C28.981,13.947,29.062,14.713,29.062,15.5z M12.594,11.625l-1.938-4.844L15.5,3.884
		l4.844,2.898l-1.938,4.844L12.594,11.625L12.594,11.625z M25.188,16.469l0.969,4.844l-4.844,2.906l-3.875-3.875l2.906-4.844
		L25.188,16.469z M10.656,15.5l2.906,4.844l-3.875,3.875l-4.844-2.906l0.969-4.844L10.656,15.5z"/>
</g>
<g>
</g>
<g>
</g>
<g>
</g>
<g>
</g>
<g>
</g>
<g>
</g>
<g>
</g>
<g>
</g>
<g>
</g>
<g>
</g>
<g>
</g>
<g>
</g>
<g>
</g>
<g>
</g>
<g>
</g>
</svg>
